<?xml version="1.0" encoding="UTF-8"?>
<!DOCTYPE svg PUBLIC "-//W3C//DTD SVG 1.1//EN" "http://www.w3.org/Graphics/SVG/1.1/DTD/svg11.dtd">
<!-- Creator: CorelDRAW 2020 (64 Bit) -->
<svg xmlns="http://www.w3.org/2000/svg" xml:space="preserve" width="4.064mm" height="3.893mm" version="1.1" style="shape-rendering:geometricPrecision; text-rendering:geometricPrecision; image-rendering:optimizeQuality; fill-rule:evenodd; clip-rule:evenodd"
viewBox="0 0 406.4 389.3"
 xmlns:xlink="http://www.w3.org/1999/xlink"
 xmlns:xodm="http://www.corel.com/coreldraw/odm/2003">
 <defs>
  <style type="text/css">
   <![CDATA[
    .fil0 {fill:#373435;fill-rule:nonzero}
   ]]>
  </style>
 </defs>
 <g id="Camada_x0020_1">
  <metadata id="CorelCorpID_0Corel-Layer"/>
  <path class="fil0" d="M254.95 237.87c10.93,-7.16 20.14,-16.8 27.57,-28.97 7.49,-12.12 11.2,-22.73 11.2,-31.78 0,-4.52 -1.07,-7.97 -3.28,-10.33 -2.21,-2.37 -5.44,-3.56 -9.64,-3.56 -8.73,0 -16.48,5.12 -23.21,15.4 -6.73,10.23 -10.07,22.14 -10.07,35.71 0,5.17 0.59,9.64 1.72,13.35 1.19,3.72 3.07,7.11 5.71,10.18zm83.03 4.43c10.49,-11.16 18.58,-24.12 24.13,-38.96 5.54,-14.91 8.32,-30.64 8.32,-47.35 0,-37.09 -13.72,-67.13 -41.07,-90.28 -27.34,-23.15 -63.08,-34.69 -107.28,-34.69 -20.24,0 -38.96,2.25 -56.2,6.82 -17.23,4.49 -32.97,11.38 -47.2,20.6 -26.45,16.56 -46.9,37.84 -61.21,63.91 -14.31,26.07 -21.51,54.92 -21.51,86.69 0,45.7 15.36,82.19 46.01,109.53 30.64,27.35 71.47,41.06 122.58,41.06 24.27,0 47.94,-3.59 70.95,-10.71 23.07,-7.2 44.35,-17.54 63.98,-31.17l14.68 21.73c-21.8,16.56 -45.1,28.99 -69.9,37.31 -24.72,8.32 -50.8,12.51 -78,12.51 -28.09,0 -53.72,-3.52 -77.01,-10.56 -23.23,-6.97 -43.84,-17.38 -61.67,-31.1 -22.7,-17.3 -39.63,-37.45 -50.79,-60.45 -11.17,-23.09 -16.79,-49.23 -16.79,-78.53 0,-24.12 3.83,-47.05 11.39,-68.77 7.64,-21.73 18.81,-41.66 33.57,-59.8 21.5,-26.15 47.35,-46.07 77.62,-59.71 30.19,-13.56 63.75,-20.38 100.76,-20.38 24.36,0 47.36,3.3 69.16,9.96 21.8,6.68 40.46,16.04 55.97,28.03 19.33,14.91 33.79,32.14 43.46,51.69 9.66,19.48 14.07,41.52 14.45,65.93 1.15,72.72 -69.06,149.44 -144.49,127.5 -8.93,-2.58 -16.69,-6.57 -23.21,-11.9 -10.18,4.85 -20.41,8.56 -30.64,11.2 -17.86,4.58 -50.16,7.97 -67.1,-0.7 -6.79,-3.55 -10.83,-9.21 -12.07,-17.02 -6.24,7.16 -12.92,12.61 -20.14,16.21 -7.22,3.67 -15.29,5.66 -24.13,6.09l6.04 -21.33c12.38,-0.43 22.99,-7.27 31.77,-20.57 8.78,-13.3 17.07,-35.22 24.88,-65.76 1.13,-4.85 2.53,-10.98 4.09,-18.47 3.18,-15.89 13.52,-23.81 31.13,-23.81 4.1,0 7.22,0.6 9.37,1.84 2.16,1.18 3.23,2.96 3.23,5.28 0,3.12 -1.83,9.31 -5.44,18.47 -3.6,9.15 -6.19,16.21 -7.75,21.27l-15.13 45.78 -0.65 1.88c-3.77,11.04 -5.65,18.21 -5.65,21.49 0,4.42 1.45,7.49 4.41,9.21 10.19,6.03 27.8,3.02 38.56,0.38 6.14,-1.46 12.12,-3.45 17.88,-5.98 -3.98,-5.28 -6.89,-11.26 -8.77,-17.99 -1.89,-6.73 -2.86,-14.65 -2.86,-23.7 0,-21 7.16,-39.31 21.54,-54.87 14.38,-15.57 31.35,-23.38 50.9,-23.38 10.93,0 19.6,3.29 25.96,9.86 6.35,6.57 9.53,15.56 9.53,26.92 0,12.39 -4.58,26.12 -13.68,41.1 -9.11,14.97 -21.22,28.22 -36.41,39.69 24.01,22.27 51.04,9.22 70.43,-12zm-146.74 -153.39c-6.09,0 -10.78,-1.67 -14.11,-4.95 -3.29,-3.34 -4.96,-8.03 -4.96,-14.12 0,-7.91 2.43,-14.59 7.33,-19.98 4.9,-5.44 10.71,-8.13 17.55,-8.13 5.6,0 10.18,1.83 13.9,5.55 3.66,3.66 5.49,8.4 5.49,14.16 0,7.81 -2.42,14.33 -7.27,19.61 -4.79,5.22 -10.77,7.86 -17.93,7.86z"/>
 </g>
</svg>
